#!OML:ASF E:\motion texture\Top Level 1\Subject 1\Session 1\male.ASF
:FULLY-SPECIFIED
:DEGREES
373
root -18.6234 17.8067 4.50768 59.714 -85.3392 -53.4629
lowerback -0.0945617 -2.50216 0.447889
upperback -1.16405 -3.39641 5.16583
thorax -0.854768 -1.72733 5.09588
lowerneck -17.4341 0.525856 -2.13415
upperneck 21.3288 0.667534 2.00713
head 9.61295 0.298438 1.13063
rclavicle -8.34896e-015 -2.14687e-014
rhumerus -33.6751 -28.2846 -66.5101
rradius 17.4751
rwrist 22.2388
rhand -18.1174 -30.2238
rfingers 7.12502
rthumb 8.15698 -60.0464
lclavicle -8.34896e-015 -2.14687e-014
lhumerus -16.5475 -11.6841 86.8022
lradius 52.7194
lwrist -18.8672
lhand -14.2647 21.5932
lfingers 7.12502
lthumb 11.8739 51.2365
rfemur -26.2039 1.2119 26.4043
rtibia 21.2606
rfoot -1.56075 -12.1286
rtoes 16.4183
lfemur -7.47049 0.382577 -13.5575
ltibia 44.9352
lfoot 4.61833 -9.27077
ltoes -15.8228
374
root -18.8061 17.8167 4.4965 61.8255 -85.0859 -55.7138
lowerback -0.0856774 -2.36365 0.763074
upperback -1.1506 -3.21439 5.25335
thorax -0.873483 -1.64038 5.00953
lowerneck -17.4113 0.581342 -2.08612
upperneck 21.3268 0.749014 1.93682
head 9.60665 0.332285 1.10877
rclavicle 2.68359e-014 -1.43125e-014
rhumerus -32.3708 -26.5803 -68.4306
rradius 17.7826
rwrist 21.4841
rhand -18.1906 -30.0137
rfingers 7.12502
rthumb 8.0864 -59.839
lclavicle 2.68359e-014 -1.43125e-014
lhumerus -17.0558 -12.2329 87.5458
lradius 52.8838
lwrist -19.4059
lhand -14.2416 21.2595
lfingers 7.12502
lthumb 11.8962 50.9016
rfemur -25.4583 1.32286 26.9285
rtibia 21.346
rfoot -1.6946 -11.9852
rtoes 16.812
lfemur -8.39555 0.560366 -13.029
ltibia 46.3879
lfoot 5.13979 -8.9555
ltoes -16.1711
375
root -18.9882 17.8277 4.48559 63.8512 -84.8372 -57.877
lowerback -0.0801384 -2.21794 1.07933
upperback -1.14004 -3.02268 5.33284
thorax -0.893143 -1.54856 4.91392
lowerneck -17.3904 0.635034 -2.04067
upperneck 21.3261 0.826954 1.87387
head 9.60133 0.365138 1.08945
rclavicle 2.55935e-014 -2.06736e-014
rhumerus -31.1285 -24.7709 -70.2751
rradius 18.1427
rwrist 20.6899
rhand -18.2584 -29.8318
rfingers 7.12502
rthumb 8.02096 -59.6596
lclavicle 2.55935e-014 -2.06736e-014
lhumerus -17.5872 -12.7277 88.2849
lradius 52.9759
lwrist -19.9447
lhand -14.2183 20.9354
lfingers 7.12502
lthumb 11.9186 50.5761
rfemur -24.681 1.44016 27.444
rtibia 21.3841
rfoot -1.84936 -11.8528
rtoes 17.173
lfemur -9.3506 0.742199 -12.515
ltibia 47.7923
lfoot 5.57607 -8.62694
ltoes -16.5086
376
root -19.1697 17.8396 4.47493 65.8032 -84.5931 -59.9629
lowerback -0.0799108 -2.06576 1.3961
upperback -1.13206 -2.82232 5.40391
thorax -0.912053 -1.4524 4.80885
lowerneck -17.3721 0.686922 -1.99895
upperneck 21.3263 0.901177 1.82042
head 9.59687 0.397079 1.07359
rclavicle 1.93318e-014 -4.05521e-014
rhumerus -29.9522 -22.8648 -72.0369
rradius 18.5602
rwrist 19.8607
rhand -18.3178 -29.6726
rfingers 7.12502
rthumb 7.96362 -59.5026
lclavicle 1.93318e-014 -4.05521e-014
lhumerus -18.1386 -13.1644 89.0148
lradius 52.9974
lwrist -20.4757
lhand -14.1916 20.6223
lfingers 7.12502
lthumb 11.9444 50.2615
rfemur -23.8745 1.56566 27.9497
rtibia 21.3713
rfoot -2.0279 -11.7341
rtoes 17.4931
lfemur -10.3327 0.927919 -12.0164
ltibia 49.1391
lfoot 5.92744 -8.28738
ltoes -16.831
377
root -19.3504 17.8521 4.46462 67.7103 -84.3554 -61.9984
lowerback -0.0844073 -1.90659 1.71265
upperback -1.12764 -2.61258 5.46601
thorax -0.931363 -1.35151 4.69427
lowerneck -17.3566 0.736541 -1.95647
upperneck 21.3271 0.971171 1.77083
head 9.59329 0.427588 1.05841
rclavicle 2.33075e-014 -3.02153e-014
rhumerus -28.8469 -20.8828 -73.7042
rradius 19.0388
rwrist 19.0123
rhand -18.366 -29.5422
rfingers 7.12502
rthumb 7.91707 -59.374
lclavicle 2.33075e-014 -3.02153e-014
lhumerus -18.7096 -13.5386 89.732
lradius 52.9517
lwrist -20.992
lhand -14.1591 20.3188
lfingers 7.12502
lthumb 11.9757 49.9562
rfemur -23.0444 1.69736 28.4442
rtibia 21.3098
rfoot -2.2335 -11.6266
rtoes 17.762
lfemur -11.3381 1.11841 -11.5357
ltibia 50.4181
lfoot 6.19295 -7.93688
ltoes -17.1334
378
root -19.5302 17.8653 4.45464 69.5783 -84.1241 -63.9878
lowerback -0.0944439 -1.74084 2.02819
upperback -1.12583 -2.39409 5.51853
thorax -0.949391 -1.24621 4.56995
lowerneck -17.35 0.783182 -1.91571
upperneck 21.331 1.03586 1.72882
head 9.59257 0.456405 1.04556
rclavicle -7.55382e-015 3.97569e-015
rhumerus -27.8109 -18.8457 -75.2704
rradius 19.5778
rwrist 18.1594
rhand -18.4073 -29.4247
rfingers 7.12502
rthumb 7.87728 -59.2579
lclavicle -7.55382e-015 3.97569e-015
lhumerus -19.2942 -13.8488 90.431
lradius 52.84
lwrist -21.484
lhand -14.121 20.0259
lfingers 7.12502
lthumb 12.0125 49.6612
rfemur -22.1952 1.83545 28.9266
rtibia 21.2016
rfoot -2.46529 -11.5324
rtoes 17.9692
lfemur -12.3628 1.31333 -11.0734
ltibia 51.6197
lfoot 6.37256 -7.57559
ltoes -17.4211
379
root -19.7092 17.8788 4.44505 71.4133 -83.9002 -65.9363
lowerback -0.108964 -1.56877 2.34173
upperback -1.12856 -2.16706 5.56107
thorax -0.96846 -1.13661 4.43619
lowerneck -17.3471 0.82669 -1.87648
upperneck 21.3372 1.0951 1.69325
head 9.59349 0.483302 1.03454
rclavicle -1.87852e-014 3.33958e-014
rhumerus -26.8464 -16.7701 -76.7299
rradius 20.1797
rwrist 17.3117
rhand -18.4381 -29.3312
rfingers 7.12502
rthumb 7.84752 -59.1656
lclavicle -1.87852e-014 3.33958e-014
lhumerus -19.895 -14.0902 91.1087
lradius 52.6674
lwrist -21.9498
lhand -14.0763 19.7445
lfingers 7.12502
lthumb 12.0555 49.3773
rfemur -21.3299 1.97807 29.3954
rtibia 21.0481
rfoot -2.71943 -11.4518
rtoes 18.124
lfemur -13.4025 1.51221 -10.6316
ltibia 52.7352
lfoot 6.4671 -7.20219
ltoes -17.692
